<svg xmlns="http://www.w3.org/2000/svg" viewBox="0 0 389.09 416.63"><defs><style>.cls-1{fill:#fff;}</style></defs><g id="Layer_2" data-name="Layer 2"><g id="Layer_4" data-name="Layer 4"><path class="cls-1" d="M371.05,161.09a18.08,18.08,0,1,0-16.47-10.69l-59.06,12.84,3.34-33L259.53,165a13.57,13.57,0,0,0-3.58-2.55l10.8-75a14,14,0,0,0,2.07.17,13.84,13.84,0,1,0-12.56-8.07L226.8,103.69,200.67,35.47a18,18,0,1,0-8.79.12l-26.79,71L128.44,81.27a13.81,13.81,0,1,0-11.62,6.36,13.56,13.56,0,0,0,1.43-.07l16.3,74.12a13.77,13.77,0,0,0-4.51,2.47L93.9,131l-2,32.45L34.72,150A18.13,18.13,0,1,0,30,156.57l32.76,46.84-35.41,13a9.44,9.44,0,1,0-.79,8L108,268.19l20.32,29.05-20.89,21.47a13.81,13.81,0,1,0,7.16,12.11,14.23,14.23,0,0,0-.31-2.94l65-10a18.07,18.07,0,0,0,13.46,9.05v62.41a13.83,13.83,0,1,0,5-.19v-62.3A18,18,0,0,0,211,317.54l71.24,10.95a13.85,13.85,0,1,0,7.5-10.05l-7-22.72,82.81-66.8a9.43,9.43,0,1,0-1.71-10.06l-29.51-13.55,27.11-47.05A18,18,0,0,0,371.05,161.09Zm-78.45-18.6-2.22,21.87-27.5,6a12.69,12.69,0,0,0-.48-1.21Zm-2.75,27.1-1.49,14.66-21.19-9.73ZM259.14,83.67a13.79,13.79,0,0,0,2.79,2.12L251.1,161.06c-.42,0-.85-.06-1.28-.06s-.7,0-1,.05l-20.09-52.44Zm-15.89,77L200.9,131.35,224.61,112Zm-4,23.11-65.58,67.7-26.87-65.36a13.81,13.81,0,0,0,5.81-11.25,14,14,0,0,0-.47-3.56l44.72-36.61,43.52,30.08a13.77,13.77,0,0,0-1.13,19ZM196.3,38l26.42,69-26.1,21.36-27.29-18.86Zm-28.79,76.31,25.09,17.34-42.67,34.94a14.36,14.36,0,0,0-1.49-1.72ZM123.05,86.14A14.09,14.09,0,0,0,125,85l38.29,26.47-19.11,50.65a13.71,13.71,0,0,0-4.63-1ZM98.26,141.78,126.82,168a13.45,13.45,0,0,0-1.36,3.37l-28.57-6.74Zm-1.67,27.9,28.51,6.72a13.94,13.94,0,0,0,1,3.77l-30.79,11.3Zm-61.5-14.51,56.56,13.34-1.49,24.84-22.57,8.28Zm-4.91,65.52,35.52-13,36,51.45Zm40.37-14.82,58.37-21.42a13.75,13.75,0,0,0,13.36,3.73l27.62,67.17-25.74,26.57-32.7-17.57Zm47.27,67.57,22.73,12.21-8.24,8.51Zm-5.52,49.69c-.15-.22-.31-.42-.47-.64l33.3-34.38,32.23,17.32a18.75,18.75,0,0,0-.36,3.62,18,18,0,0,0,.48,4.06Zm66.77-22.46-30.33-16.29,23.23-24,13.68,33.26A18.1,18.1,0,0,0,179.07,300.67Zm106.41,21a13,13,0,0,0-1.49,2l-71.28-11c.07-.33.11-.66.16-1l65.19-14Zm-8.13-28.86-64.44,13.82A18,18,0,0,0,195.05,291a17.74,17.74,0,0,0-4.81.67l-14.47-35.19,67.37-69.57a13.81,13.81,0,0,0,20.06-8.71l24.63,11.31Zm15.28-101.1,34.55,15.86L283.3,283.72Zm70.5,32.36a2.7,2.7,0,0,1,0,.28l-74.55,60.14,43.12-74.83Zm-33.44-20.85-36.52-16.77,1.82-18,62.47-13.58,0,.06Z"/></g></g></svg>
