
<svg xmlns="http://www.w3.org/2000/svg" viewBox="0 0 361.36 393.23"><defs><style>.cls-1{fill:#fff;}</style></defs><g id="Layer_2" data-name="Layer 2"><g id="Layer_4" data-name="Layer 4"><path class="cls-1" d="M281.24,309.34l-96.72-14.87L87.8,309.34l10.58-34.09-86-147.89,115.18,27.17L184.51,3.61l57,148.67,114.39-24.86L270.66,275.25Zm-96.72-17.16.17,0L278,306.55,268.2,275l.25-.43,82.88-143.84L240,154.91l-.35-.91L184.53,10,129,157.19,17,130.77,100.84,275,91,306.55Z"/><path class="cls-1" d="M184.52,294.48,99.1,276.16l-.22-.18L7.32,199,45.2,181.41l37.12-69.26,44.44,40.77L112.9,47.65l45.85,27.16h52l46.2-25.58L242.31,150.71,286,112.15l36.34,71.54,39,18.72-91.43,73.75-.26.06Zm-84.4-20.42,84.4,18.11,84.41-18.11,88.21-71.16-36.46-17.5-.18-.35-35.19-69.26-46.12,40.69L254,53.42,211.3,77.08H158.13l-.27-.16L115.75,52,129.82,158.8l-46.88-43-36.1,67.35-.34.16-35,16.24Z"/><rect class="cls-1" x="183.39" y="293.33" width="2.26" height="91.98"/><circle class="cls-1" cx="184.14" cy="9.43" r="9.43"/><circle class="cls-1" cx="254.34" cy="50.19" r="9.43"/><circle class="cls-1" cx="240.75" cy="153.6" r="9.43"/><circle class="cls-1" cx="126.78" cy="153.6" r="9.43"/><circle class="cls-1" cx="112.44" cy="48.68" r="9.43"/><circle class="cls-1" cx="12.81" cy="129.44" r="9.43"/><circle class="cls-1" cx="184.14" cy="383.8" r="9.43"/><circle class="cls-1" cx="278.49" cy="307.57" r="9.43"/><circle class="cls-1" cx="268.68" cy="273.6" r="9.43"/><circle class="cls-1" cx="99.61" cy="275.11" r="9.43"/><circle class="cls-1" cx="88.29" cy="307.57" r="9.43"/><circle class="cls-1" cx="82.83" cy="112.35" r="7.35"/><circle class="cls-1" cx="285.86" cy="112.35" r="7.35"/><circle class="cls-1" cx="7.35" cy="199.15" r="7.35"/></g></g></svg>
