<svg xmlns="http://www.w3.org/2000/svg" viewBox="0 0 363.63 394"><defs><style>.cls-1{fill:#fff;}</style></defs><g id="Layer_2" data-name="Layer 2"><g id="Layer_4" data-name="Layer 4"><path class="cls-1" d="M83.57,312.29l31.08-32L10.8,131.87l114.25,26.95,56.22-149,56.24,146.83,113-24.56L266.4,278l10.54,34-95.66-14.71Zm97.71-18.05.23,0,91.14,14-9.5-30.62,81.39-141.24L235.63,160.09l-.46-1.2L181.29,18.22,126.92,162.34,17.77,136.6,118.53,280.66,92,308Z"/><polygon class="cls-1" points="79.09 177.59 76.1 177.41 79.78 116.15 127 159.47 124.97 161.69 82.39 122.63 79.09 177.59"/><polygon class="cls-1" points="181.05 297.34 5.44 203 125.08 159.09 126.11 161.91 12.74 203.51 181.5 294.17 264.11 276.45 350.27 206.95 238.97 155.86 240.22 153.14 355.92 206.24 265.44 279.24 181.05 297.34"/><polygon class="cls-1" points="266.08 278.65 263.1 278.35 278.85 123.05 234.5 162.18 249.01 61.39 126.54 161.66 124.64 159.34 253.08 54.18 238.64 154.53 282.61 115.73 266.08 278.65"/><rect class="cls-1" x="179.78" y="295.75" width="3" height="90.45"/><circle class="cls-1" cx="182.43" cy="384.57" r="9.43"/><circle class="cls-1" cx="9.43" cy="205.57" r="9.43"/><circle class="cls-1" cx="353.43" cy="207.57" r="9.43"/><circle class="cls-1" cx="87.43" cy="310.57" r="9.43"/><circle class="cls-1" cx="103.43" cy="60.57" r="9.43"/><circle class="cls-1" cx="253.43" cy="56.57" r="9.43"/><circle class="cls-1" cx="273.43" cy="308.57" r="9.43"/><circle class="cls-1" cx="180.82" cy="294.82" r="13.82"/><circle class="cls-1" cx="234.82" cy="157.82" r="13.82"/><circle class="cls-1" cx="123.82" cy="157.82" r="13.82"/><circle class="cls-1" cx="180.82" cy="13.82" r="13.82"/><circle class="cls-1" cx="13.82" cy="133.82" r="13.82"/><circle class="cls-1" cx="349.82" cy="134.82" r="13.82"/><path class="cls-1" d="M86.67,314.54l-2.15-2.08,71.55-73.88L124.16,161l0-.13L101.31,57.1,241.9,154.27l-82.31,85,22.62,55-2.78,1.14L157.32,241.6ZM127,160.05l31.32,76.18,78.93-81.5L105.88,63.9Z"/></g></g></svg>
